<svg width="16" height="20" viewBox="0 0 16 20" fill="none" xmlns="http://www.w3.org/2000/svg">
<path d="M8.00006 8C10.2101 8 12.0001 6.21 12.0001 4C12.0001 1.79 10.2101 0 8.00006 0C5.79006 0 4.00006 1.79 4.00006 4C4.00006 6.21 5.79006 8 8.00006 8ZM8.00006 2C9.10006 2 10.0001 2.9 10.0001 4C10.0001 5.1 9.10006 6 8.00006 6C6.90006 6 6.00006 5.1 6.00006 4C6.00006 2.9 6.90006 2 8.00006 2ZM14.3901 10.56C12.7101 9.7 10.5301 9 8.00006 9C5.47006 9 3.29007 9.7 1.61007 10.56C1.12212 10.8113 0.713366 11.1929 0.429165 11.6625C0.144963 12.132 -0.00356536 12.6712 6.49903e-05 13.22V20H2.00007V13.22C2.00007 12.84 2.20007 12.5 2.50007 12.34C3.71007 11.73 5.63006 11 8.00006 11C8.76006 11 9.47006 11.07 10.1301 11.2L8.58006 14.5H5.75006C4.23006 14.5 3.00007 15.73 3.00007 17.25C3.00007 18.77 4.23006 20 5.75006 20H14.0001C15.1001 20 16.0001 19.1 16.0001 18V13.22C16.0001 12.1 15.3901 11.07 14.3901 10.56ZM6.94006 18H5.75006C5.34006 18 5.00006 17.66 5.00006 17.25C5.00006 16.84 5.34006 16.5 5.75006 16.5H7.64007L6.94006 18ZM14.0001 18H9.15006L12.0901 11.73C12.6301 11.93 13.1001 12.14 13.5001 12.34C13.8001 12.5 14.0001 12.84 14.0001 13.22V18Z" fill="#F8F8F8"/>
</svg>
