<svg width="20" height="20" viewBox="0 0 20 20" fill="none" xmlns="http://www.w3.org/2000/svg">
<path d="M0.634 15.918C0.70343 16.2196 0.85094 16.4976 1.06174 16.7242C1.27253 16.9508 1.5392 17.118 1.835 17.209L2.015 18H2V20H18V18H4.683C4.69613 17.9076 4.69376 17.8136 4.676 17.722L4.48 16.859L14.837 14.503L15.033 15.366C15.0852 15.595 15.2262 15.7938 15.425 15.9189C15.6237 16.044 15.864 16.085 16.093 16.033L16.956 15.836C17.0694 15.8103 17.1767 15.7624 17.2716 15.6952C17.3665 15.628 17.4473 15.5427 17.5092 15.4443C17.5712 15.3458 17.6131 15.2361 17.6326 15.1215C17.6522 15.0068 17.6489 14.8894 17.623 14.776L17.372 13.673C17.818 13.257 18.042 12.627 17.897 11.99L17.307 9.4C17.2354 9.08797 17.0801 8.80137 16.8577 8.57107C16.6353 8.34077 16.3543 8.17548 16.045 8.093L13.996 4.715C13.6938 4.21869 13.2435 3.82979 12.7084 3.60318C12.1734 3.37657 11.5807 3.32369 11.014 3.452L3.146 5.242C2.57868 5.37051 2.06624 5.67442 1.6814 6.11061C1.29655 6.54679 1.05884 7.09309 1.002 7.672L0.615 11.604C0.372269 11.8124 0.190939 12.0831 0.0905076 12.3868C-0.0099235 12.6906 -0.0256565 13.016 0.0450002 13.328L0.634 15.918ZM3.654 15.23C3.484 15.2687 3.30804 15.2736 3.13616 15.2444C2.96428 15.2151 2.79985 15.1523 2.65225 15.0594C2.50465 14.9666 2.37678 14.8457 2.27593 14.7034C2.17508 14.5612 2.10324 14.4005 2.0645 14.2305C2.02576 14.0605 2.02088 13.8845 2.05015 13.7127C2.07941 13.5408 2.14224 13.3763 2.23505 13.2287C2.32787 13.0811 2.44884 12.9533 2.59107 12.8524C2.7333 12.7516 2.894 12.6797 3.064 12.641C3.40732 12.5628 3.76766 12.6241 4.06575 12.8116C4.36384 12.999 4.57526 13.2972 4.6535 13.6405C4.73174 13.9838 4.67039 14.3442 4.48295 14.6423C4.2955 14.9403 3.99732 15.1518 3.654 15.23ZM14.876 12.678C14.7031 12.7255 14.5224 12.7375 14.3447 12.7133C14.167 12.6891 13.9961 12.6292 13.8422 12.5371C13.6883 12.445 13.5547 12.3228 13.4493 12.1777C13.344 12.0326 13.2691 11.8676 13.2293 11.6928C13.1894 11.518 13.1853 11.3369 13.2173 11.1604C13.2494 10.984 13.3168 10.8159 13.4155 10.6662C13.5143 10.5165 13.6423 10.3884 13.7919 10.2895C13.9415 10.1907 14.1096 10.1231 14.286 10.091C14.6225 10.0297 14.9698 10.1006 15.2553 10.289C15.5409 10.4774 15.7427 10.7687 15.8188 11.1022C15.8948 11.4357 15.8393 11.7857 15.6636 12.0793C15.488 12.3729 15.2059 12.5873 14.876 12.678ZM3.589 7.192L11.458 5.401C11.6157 5.36537 11.7806 5.38008 11.9294 5.44304C12.0783 5.506 12.2037 5.61405 12.288 5.752L13.873 8.365L13.307 8.494L3.261 10.781L2.693 10.91L2.992 7.868C3.0081 7.70697 3.07439 7.55506 3.18152 7.43376C3.28865 7.31245 3.43119 7.22788 3.589 7.192ZM16.405 2L15 0L14.5 3L17 7L20 8L18 5.461L20 4.528L18 3.595L20 0L16.405 2Z" fill="#F8F8F8"/>
</svg>
