<svg width="16" height="16" viewBox="0 0 16 16" fill="none" xmlns="http://www.w3.org/2000/svg">
<path d="M15.17 7.36L13 4.92C12.8821 4.78726 12.7373 4.68115 12.5752 4.60873C12.4132 4.53631 12.2375 4.49924 12.06 4.5H10.06V2.75C10.06 2.4202 9.92969 2.10377 9.69743 1.86963C9.46516 1.6355 9.14978 1.50264 8.82 1.5H1.76C1.42848 1.5 1.11054 1.6317 0.876117 1.86612C0.641696 2.10054 0.51 2.41848 0.51 2.75V11.25C0.51 11.5815 0.641696 11.8995 0.876117 12.1339C1.11054 12.3683 1.42848 12.5 1.76 12.5H2.09C2.10828 13.0473 2.34269 13.5651 2.74191 13.9399C3.14113 14.3148 3.67262 14.5162 4.22 14.5C4.76836 14.5162 5.30093 14.3151 5.70174 13.9406C6.10255 13.566 6.33914 13.0482 6.36 12.5H10C10.0183 13.0473 10.2527 13.5651 10.6519 13.9399C11.0511 14.3148 11.5826 14.5162 12.13 14.5C12.6784 14.5162 13.2109 14.3151 13.6117 13.9406C14.0125 13.566 14.2491 13.0482 14.27 12.5C14.5919 12.4847 14.8958 12.3465 15.119 12.114C15.3422 11.8815 15.4678 11.5723 15.47 11.25V8.19C15.4771 7.88559 15.3701 7.58953 15.17 7.36ZM4.22 13.25C4.00399 13.2666 3.7902 13.197 3.62531 13.0565C3.46043 12.916 3.35786 12.7159 3.34 12.5C3.35786 12.2841 3.46043 12.084 3.62531 11.9435C3.7902 11.803 4.00399 11.7334 4.22 11.75C4.43707 11.7333 4.652 11.8026 4.81848 11.9429C4.98496 12.0832 5.08966 12.2832 5.11 12.5C5.08966 12.7168 4.98496 12.9168 4.81848 13.0571C4.652 13.1974 4.43707 13.2667 4.22 13.25ZM8.82 5.67V11.25H5.89C5.6831 11.0109 5.42643 10.8198 5.13796 10.6903C4.84949 10.5607 4.5362 10.4958 4.22 10.5C3.90548 10.4972 3.59413 10.5629 3.30749 10.6924C3.02086 10.8219 2.76581 11.0122 2.56 11.25H1.76V2.75H8.82V5.67ZM10.07 5.75H12.07L13.51 7.38H10.07V5.75ZM12.15 13.25C11.934 13.2666 11.7202 13.197 11.5553 13.0565C11.3904 12.916 11.2879 12.7159 11.27 12.5C11.2879 12.2841 11.3904 12.084 11.5553 11.9435C11.7202 11.803 11.934 11.7334 12.15 11.75C12.3671 11.7333 12.582 11.8026 12.7485 11.9429C12.915 12.0832 13.0197 12.2832 13.04 12.5C13.0197 12.7168 12.915 12.9168 12.7485 13.0571C12.582 13.1974 12.3671 13.2667 12.15 13.25ZM12.15 10.5C11.8355 10.4972 11.5241 10.5629 11.2375 10.6924C10.9509 10.8219 10.6958 11.0122 10.49 11.25H10.07V8.62H14.24V11.25H13.82C13.6131 11.0109 13.3564 10.8198 13.068 10.6903C12.7795 10.5607 12.4662 10.4958 12.15 10.5Z" fill="#F8F8F8"/>
</svg>
