<svg width="416" height="512" viewBox="0 0 416 512" fill="none" xmlns="http://www.w3.org/2000/svg">
<path d="M224 0C241.7 0 256 14.3 256 32V41.8C256 96.4 228.1 146.4 183.5 175.4L183.7 175.7L240.5 256H328C343.1 256 357.3 263.1 366.4 275.2L409.6 332.8C420.2 346.9 417.3 367 403.2 377.6C389.1 388.2 369 385.3 358.4 371.2L320 320H222.6L314.9 462.6C324.5 477.4 320.3 497.2 305.4 506.9C290.5 516.6 270.8 512.3 261.1 497.4L100.5 249.2C97.6 258.4 96 268.2 96 278.2V352C96 369.7 81.7 384 64 384C46.3 384 32 369.7 32 352V278.2C32 213.1 71.6 154.5 132.1 130.3C168.3 115.8 192 80.8 192 41.8V32C192 14.3 206.3 0 224 0ZM48 32C60.7304 32 72.9394 37.0571 81.9411 46.0589C90.9429 55.0606 96 67.2696 96 80C96 92.7304 90.9429 104.939 81.9411 113.941C72.9394 122.943 60.7304 128 48 128C35.2696 128 23.0606 122.943 14.0589 113.941C5.05713 104.939 0 92.7304 0 80C0 67.2696 5.05713 55.0606 14.0589 46.0589C23.0606 37.0571 35.2696 32 48 32Z" fill="#F8F8F8"/>
</svg>
