<svg width="16" height="20" viewBox="0 0 16 20" fill="none" xmlns="http://www.w3.org/2000/svg">
<path d="M8 8C10.21 8 12 6.21 12 4C12 1.79 10.21 0 8 0C5.79 0 4 1.79 4 4C4 6.21 5.79 8 8 8ZM8 2C9.1 2 10 2.9 10 4C10 5.1 9.1 6 8 6C6.9 6 6 5.1 6 4C6 2.9 6.9 2 8 2ZM14.39 10.56C12.71 9.7 10.53 9 8 9C5.47 9 3.29 9.7 1.61 10.56C1.12206 10.8113 0.713305 11.1929 0.429104 11.6625C0.144902 12.132 -0.00362639 12.6712 3.95512e-06 13.22V20H2V13.22C2 12.84 2.2 12.5 2.52 12.34C3.71 11.73 5.63 11 8 11C8.76 11 9.47 11.07 10.13 11.2L8.58 14.5H5.75C4.23 14.5 3 15.73 3 17.25C3 18.77 4.23 20 5.75 20H14C15.1 20 16 19.1 16 18V13.22C16 12.1 15.39 11.07 14.39 10.56ZM6.94 18H5.75C5.34 18 5 17.66 5 17.25C5 16.84 5.34 16.5 5.75 16.5H7.64L6.94 18ZM14 18H9.15L12.09 11.73C12.63 11.93 13.1 12.14 13.49 12.34C13.8 12.5 14 12.84 14 13.22V18Z" fill="#F8F8F8"/>
</svg>
